<?xml version="1.0" encoding="UTF-8"?>
<svg version="1.1" xmlns="http://www.w3.org/2000/svg" width="583" height="297">
<path d="M0 0 C6.44727725 5.50724714 11.40850368 11.38972432 12.27734375 20.078125 C13.03296138 31.2234851 9.49774548 38.78880478 2.27734375 47.078125 C-2.18547884 51.85287688 -6.85877402 56.42359535 -11.50390625 61.01953125 C-12.84528163 62.35462155 -14.18613338 63.69023811 -15.52648926 65.02635193 C-19.03759149 68.52423069 -22.55423246 72.01648146 -26.0725708 75.50708008 C-31.7033465 81.09453843 -37.32731656 86.68882539 -42.94798279 92.28645134 C-44.89914061 94.22748492 -46.85372719 96.16501397 -48.80871582 98.10218811 C-54.15427533 103.41166554 -59.43644821 108.70265596 -64.32022095 114.44737244 C-66.43023485 116.90089779 -68.70556074 119.17293691 -71 121.453125 C-71.92490234 122.37480469 -72.84980469 123.29648438 -73.80273438 124.24609375 C-74.75515193 125.19016107 -75.70762656 126.13417082 -76.66015625 127.078125 C-77.64020935 128.05314886 -78.62002865 129.0284078 -79.59960938 130.00390625 C-81.97167938 132.36429118 -84.34606485 134.72229405 -86.72265625 137.078125 C-85.9028125 136.5728125 -85.08296875 136.0675 -84.23828125 135.546875 C-83.160625 134.8971875 -82.08296875 134.2475 -80.97265625 133.578125 C-79.9053125 132.9284375 -78.83796875 132.27875 -77.73828125 131.609375 C-74.72265625 130.078125 -74.72265625 130.078125 -70.72265625 130.078125 C-68.828125 131.546875 -68.828125 131.546875 -66.91015625 133.578125 C-65.97236328 134.55265625 -65.97236328 134.55265625 -65.015625 135.546875 C-63.81012535 136.87764804 -62.60904136 138.21344637 -61.45445251 139.58862305 C-55.95418702 146.08402852 -49.88635293 151.99878193 -43.83842087 157.97639465 C-41.83381097 159.95874376 -39.83339445 161.9452371 -37.83413696 163.9329834 C-32.15477197 169.57897279 -26.47120402 175.22067723 -20.77734375 180.85205078 C-17.28091483 184.31069661 -13.79195538 187.77673077 -10.30757523 191.24751282 C-8.98595455 192.56112086 -7.6615708 193.87195543 -6.33430099 195.17985535 C-4.47542899 197.01205164 -2.62623153 198.85353534 -0.77880859 200.69726562 C-0.23738724 201.22633011 0.30403412 201.75539459 0.86186218 202.30049133 C8.07121223 209.54770778 11.78246092 216.84260134 12.58984375 227.015625 C12.32253883 236.08617207 8.07880787 243.57191008 1.65234375 249.765625 C-3.70664912 254.27636015 -9.3628806 255.71814904 -16.22265625 256.453125 C-31.30813686 254.83682351 -39.72358133 245.38549888 -49.90454102 235.10205078 C-51.77895477 233.20938686 -53.66124049 231.3248422 -55.54492188 229.44140625 C-56.76219076 228.21921993 -57.9790029 226.9965785 -59.1953125 225.7734375 C-59.74655289 225.22108429 -60.29779327 224.66873108 -60.86573792 224.09963989 C-63.6791374 221.25264244 -66.37843323 218.34823991 -68.98643494 215.31137085 C-72.42400404 211.36917727 -76.02718204 207.64444598 -79.74023438 203.96289062 C-80.40300888 203.30157639 -81.06578339 202.64026215 -81.74864197 201.95890808 C-83.17374973 200.53757643 -84.60001043 199.11739999 -86.02732849 197.69828796 C-88.29216442 195.44633444 -90.55375775 193.19116804 -92.8145752 190.93518066 C-97.61445691 186.14667007 -102.41825929 181.36210481 -107.22265625 176.578125 C-112.79446165 171.029998 -118.36460525 165.48022355 -123.93052673 159.92619324 C-126.14795703 157.71519813 -128.36840039 155.50726059 -130.58898926 153.29943848 C-131.96116832 151.93089527 -133.33320532 150.56220959 -134.70507812 149.19335938 C-135.31411484 148.58948898 -135.92315155 147.98561859 -136.55064392 147.3634491 C-140.26490662 143.64963778 -143.77534652 139.8074955 -147.20046234 135.82517242 C-149.09753951 133.64786521 -151.10058746 131.601561 -153.16015625 129.578125 C-153.83949219 128.9078125 -154.51882812 128.2375 -155.21875 127.546875 C-155.96318359 126.81984375 -155.96318359 126.81984375 -156.72265625 126.078125 C-152.99188183 121.6011957 -149.1367551 117.41233939 -144.9453125 113.36328125 C-143.0540487 111.41883604 -141.28982195 109.43505771 -139.52233887 107.38000488 C-136.06253443 103.4156363 -132.44035499 99.66648198 -128.70507812 95.96289062 C-128.04230362 95.30157639 -127.37952911 94.64026215 -126.69667053 93.95890808 C-125.27156277 92.53757643 -123.84530207 91.11739999 -122.41798401 89.69828796 C-120.15314808 87.44633444 -117.89155475 85.19116804 -115.6307373 82.93518066 C-110.01775753 77.33549827 -104.39932666 71.74129557 -98.78106689 66.14691162 C-94.02333566 61.40897793 -89.26770303 56.66895625 -84.51478577 51.92619324 C-82.29735547 49.71519813 -80.07691211 47.50726059 -77.85632324 45.29943848 C-76.48414418 43.93089527 -75.11210718 42.56220959 -73.74023438 41.19335938 C-72.82667931 40.28755379 -72.82667931 40.28755379 -71.89466858 39.3634491 C-68.19830639 35.66753611 -64.70252514 31.8457243 -61.29341602 27.88303661 C-57.41594475 23.42755395 -53.21475673 19.26569344 -49.06274414 15.06811523 C-47.96096612 13.94973486 -46.86458694 12.82601001 -45.77368164 11.69702148 C-33.53482572 -0.96418055 -17.11273683 -12.07957894 0 0 Z " fill="#F4A260" transform="translate(157.72265625,22.921875)"/>
<path d="M0 0 C7.86437044 7.26885645 15.44171476 14.81562184 23.00712585 22.39356995 C24.45565484 23.8414237 25.9043321 25.28912911 27.35314941 26.73669434 C30.37281612 29.75489532 33.39068876 32.77487547 36.40727234 35.79615784 C40.25686034 39.65145271 44.11093531 43.50222583 47.96636486 47.35167789 C50.95287592 50.3345616 53.93698417 53.31983998 56.92038918 56.30583 C58.34010432 57.72620787 59.76055059 59.14585538 61.18176842 60.56472969 C73.86759337 73.23421271 73.86759337 73.23421271 79.17382812 79.47961426 C82.88277716 83.66399551 86.96674817 87.49969774 90.9641571 91.4052887 C92.41145718 92.83051103 93.85694566 94.25755588 95.30245972 95.68458939 C98.83614111 99.17279388 102.37395452 102.65658749 105.92753601 106.12452698 C108.41671328 108.55446136 110.89362825 110.99631062 113.36277771 113.44658661 C114.7584206 114.8247802 116.16713271 116.18969825 117.57597351 117.55439758 C118.41434753 118.38916626 119.25272156 119.22393494 120.11650085 120.08399963 C120.86149841 120.81487793 121.60649597 121.54575623 122.37406921 122.29878235 C123.8391571 124.3584137 123.8391571 124.3584137 123.84162903 126.33546448 C122.48115437 129.08084925 120.70332792 130.84495783 118.52226257 133.00001526 C117.6039566 133.91486694 116.68565063 134.82971863 115.73951721 135.77229309 C114.72853476 136.76461813 113.71747525 137.75686466 112.7063446 138.7490387 C111.67006375 139.7771752 110.63452176 140.80605691 109.59968567 141.83564758 C106.86987677 144.54833275 104.13164234 147.25234376 101.39109802 149.95417786 C97.02447876 154.26167492 92.67022923 158.58166093 88.3169136 162.90259552 C86.80488436 164.40082779 85.2890066 165.89507395 83.7724762 167.38874817 C82.83525726 168.3162085 81.89803833 169.24366882 80.93241882 170.19923401 C80.11602936 171.00435425 79.29963989 171.80947449 78.45851135 172.63899231 C76.3818994 174.79493702 74.41036499 176.97696229 72.45269775 179.2379303 C69.08275713 183.12065922 65.55552722 186.80274311 61.929245 190.44532776 C61.27783035 191.1033136 60.62641571 191.76129944 59.95526123 192.43922424 C57.82696756 194.5870188 55.6948587 196.73096364 53.56181335 198.8740387 C52.46109906 199.98086628 52.46109906 199.98086628 51.33814812 201.11005402 C47.46098603 205.00796763 43.58063383 208.902674 39.69779968 212.79493713 C35.70043393 216.80340583 31.71489239 220.8234238 27.73182011 224.84608841 C24.65260485 227.95147373 21.56451252 231.04791602 18.47398186 234.14203644 C17.00068824 235.62018685 15.53076156 237.10170143 14.06436348 238.58669281 C12.01174864 240.66372908 9.94678262 242.727695 7.87846375 244.78907776 C7.28237305 245.39797852 6.68628235 246.00687927 6.0721283 246.63423157 C-0.16734555 252.79809902 -6.60298099 255.92250296 -15.3483429 256.6084137 C-23.7663294 256.05641458 -31.20236772 253.49551554 -37.1608429 247.3584137 C-43.5974954 238.48172299 -45.05943645 231.26990684 -44.1608429 220.3584137 C-40.89176364 207.40025617 -27.5653632 197.67606533 -18.41279602 188.63087463 C-16.70166982 186.93803381 -14.99371319 185.24203832 -13.2858429 183.5459137 C-12.77521301 183.04358215 -12.26458313 182.54125061 -11.73847961 182.0236969 C-8.99362906 179.29707421 -6.39093064 176.50095567 -3.86763 173.56739807 C0.29232524 168.76450369 4.76777016 164.30442517 9.27275085 159.8271637 C10.15068802 158.95064148 11.02862518 158.07411926 11.9331665 157.17103577 C14.71197207 154.39778574 17.49425107 151.62805087 20.2766571 148.8584137 C22.17235575 146.96830564 24.06725493 145.07739851 25.96220398 143.1865387 C30.58520899 138.57450366 35.21106367 133.96534228 39.8391571 129.3584137 C40.58681335 129.76833557 41.3344696 130.17825745 42.1047821 130.6006012 C43.08962585 131.13942932 44.0744696 131.67825745 45.0891571 132.2334137 C46.06368835 132.76708557 47.0382196 133.30075745 48.0422821 133.8506012 C50.29046119 135.06260836 52.5464376 136.23388937 54.8391571 137.3584137 C54.06543259 136.58690979 53.29170807 135.81540588 52.49453735 135.02052307 C45.18014314 127.72645764 37.86843427 120.42970976 30.55930233 113.13037109 C26.8021134 109.37838632 23.044006 105.6273315 19.28373718 101.87843323 C15.65052682 98.25613975 12.01981087 94.63136286 8.39076424 91.00489807 C7.0102684 89.62624069 5.62889714 88.24845929 4.24661064 86.87159729 C-8.46379042 74.20906638 -8.46379042 74.20906638 -13.75106812 67.98512268 C-16.01366492 65.37436059 -18.47062295 63.01080173 -20.95381165 60.6084137 C-22.00698269 59.57760966 -23.05970404 58.54634599 -24.11201477 57.5146637 C-25.73336818 55.93041051 -27.35756229 54.34952753 -28.98970032 52.77638245 C-37.53109189 44.52793361 -44.13793614 37.43560638 -44.5983429 24.9209137 C-44.52829392 16.45374359 -42.0178703 9.80544301 -36.4499054 3.38575745 C-26.8579836 -5.44662303 -10.85755718 -8.24845582 0 0 Z " fill="#F4A260" transform="translate(447.1608428955078,22.641586303710938)"/>
<path d="M0 0 C7.15350673 6.42603147 10.50074482 13.63449639 11.25 23.1875 C10.61826672 32.82143256 6.15574698 41.63302355 2.3107605 50.35888672 C0.51538974 54.43448975 -1.25993456 58.51884972 -3.0390625 62.6015625 C-3.42931107 63.49562805 -3.81955963 64.3896936 -4.22163391 65.31085205 C-8.88155602 75.99728368 -13.45733565 86.71965327 -18.04003906 97.43936157 C-26.99839918 118.39062573 -36.01949779 139.31362712 -45.11035156 160.20773315 C-50.40899059 172.38631808 -55.6848827 184.57377319 -60.8984375 196.7890625 C-61.37781265 197.91153885 -61.85718781 199.0340152 -62.35108948 200.19050598 C-64.63139796 205.53164492 -66.90742859 210.87454253 -69.17651367 216.22045898 C-82.0638026 246.50781279 -82.0638026 246.50781279 -93.3125 252.875 C-102.05774523 255.54304092 -109.53575352 255.59767796 -118 252 C-125.00890634 248.22597351 -129.97018541 242.33534058 -133 235 C-137.8889899 218.55521579 -126.22520438 200.30038669 -119.82171631 185.69290161 C-117.23533828 179.79272346 -114.66393036 173.88601687 -112.08984375 167.98046875 C-111.57218445 166.7940831 -111.05452515 165.60769745 -110.5211792 164.38536072 C-105.7584789 153.46454468 -101.05696865 142.51811972 -96.375 131.5625 C-94.90665695 128.12873208 -93.43788079 124.69514971 -91.96875 121.26171875 C-91.62308487 120.45383911 -91.27741974 119.64595947 -90.92127991 118.81359863 C-87.44373204 110.69135669 -83.92429053 102.58755367 -80.40087891 94.48510742 C-76.63274587 85.80396682 -72.90149399 77.10735264 -69.1796875 68.40625 C-68.64986446 67.16797337 -68.12002835 65.92970233 -67.59017944 64.69143677 C-64.94544119 58.51005163 -62.30294133 52.32772415 -59.66357422 46.14404297 C-57.240418 40.47047534 -54.80020948 34.80446979 -52.35131836 29.14196777 C-51.05579806 26.1297368 -49.78155189 23.1092242 -48.50976562 20.08691406 C-47.74175972 18.29975424 -46.97293282 16.5129469 -46.203125 14.7265625 C-45.71498322 13.5414357 -45.71498322 13.5414357 -45.21697998 12.33236694 C-42.21903312 5.47567938 -37.51540256 -0.54480408 -30.375 -3.375 C-29.66085937 -3.67148437 -28.94671875 -3.96796875 -28.2109375 -4.2734375 C-18.31364226 -7.52590555 -8.54981458 -5.8989351 0 0 Z " fill="#F4A260" transform="translate(347,24)"/>
</svg>
